<svg version="1.2" xmlns="http://www.w3.org/2000/svg" viewBox="0 0 1280 720" width="1280" height="720">
	<title>template</title>
	<style>
		tspan { white-space:pre } 
		.s0 { fill: #0a6ae5 } 
		.s1 { fill: #9fc7fb } 
	</style>
	<path id="Background" class="s0" d="m0 0h1280v720h-1280z"/>
	<g id="Border-bottom">
		<g id="pines">
			<path id="Layer" class="s1" d="m170 660.1c0 0 59.9 15.5 109.9-2.3 55.5-18.8 92.1 11.1 117.6 13.4 44.4 4.4 103.3-17.8 196.5 19.9 58.8 23.4 106.6-18.8 173.2-19.9 36.6-1.2 65.5 14.4 103.2 13.3 35.5-1.1 77.7-33.3 131-26.7 62.1 6.7 113.2 17.8 159.8 2.3 63.3-20 118.8 0 118.8 0v59.9h-1110z"/>
			<path id="Layer" class="s1" d="m302.1 499.1c1.1 0 32.2 64.4 32.2 64.4l-12.2-6.7c0 0 19.9 41.1 19.9 42.2 1.2 1.1-18.8-4.4-16.6-3.3 1.1 0 34.4 41 34.4 41l-49.9-1.1-1.2 21.1c0 0-22.2 1.1-21 1.1 1.1 0 0-22.2 0-22.2l-50 1.1 35.5-43.2-17.7 5.5 25.5-41.1-12.2 6.7zm185.4 77.7l18.8 37.7-7.7-3.3 12.2 24.4c0 1.1-11.1-2.2-11.1-2.2 1.1 0 21.1 24.4 21.1 24.4h-30v12.2c0 0-13.3 1.1-12.2 1.1v-13.3h-30l21.1-25.5-11.1 3.3 15.5-24.4-6.6 4.4c0 0 18.8-38.8 20-38.8zm266.4-8.9l22.2 44.4-8.9-4.4c0 0 13.3 27.7 13.3 28.8 0 1.1-12.2-3.3-11.1-3.3l23.3 28.9-34.4-1.1-1.1 14.4c0 0-14.4 1.1-13.3 1.1 1.1 0 0-15.5 0-15.5l-34.4 1.1 24.4-30-12.2 4.4 17.7-28.8-8.9 4.4zm227.6-24.4l23.3 46.6-8.9-4.4c0 0 14.5 31.1 14.5 32.2 1.1 0-13.4-3.4-12.2-3.4 1.1 0 25.5 30 25.5 30h-36.6l-1.2 15.5h-15.5c1.1 1.2 0-15.5 0-15.5h-36.6l26.6-32.2-13.3 5.6 18.9-31.1-8.9 4.4zm175.4-16.6l27.7 55.5-11.1-5.6c0 0 17.8 36.7 17.8 37.8 0 1.1-15.6-4.5-14.5-3.4 1.2 0 30 35.6 30 35.6l-44.4-1.2v18.9c0 0-18.9 1.1-17.7 1.1 1.1 0 0-20 0-20l-44.4 1.2 31-37.8-15.5 5.6 22.2-36.7-11.1 5.6z"/>
		</g>
		<g id="pines">
			<path id="Layer" class="s1" d="m-937.3 660.1c0 0 59.9 15.5 109.9-2.3 55.5-18.8 92.1 11.1 117.6 13.4 44.4 4.4 103.3-17.8 196.5 19.9 58.8 23.4 106.6-18.8 173.2-19.9 36.6-1.2 65.4 14.4 103.2 13.3 35.5-1.1 77.7-33.3 131-26.7 62.1 6.7 113.2 17.8 159.8 2.3 63.3-20 118.8 0 118.8 0v59.9h-1110z"/>
			<path id="Layer" class="s1" d="m-805.2 499.1c1.1 0 32.2 64.4 32.2 64.4l-12.3-6.7c0 0 20 41.1 20 42.2 1.1 1.1-18.8-4.4-16.6-3.3 1.1 0 34.4 41 34.4 41l-50-1.1-1.1 21.1c0 0-22.2 1.1-21.1 1.1 1.1 0 0-22.2 0-22.2l-49.9 1.1 35.5-43.2-17.8 5.5 25.6-41.1-12.2 6.7zm185.3 77.7l18.9 37.7-7.8-3.3 12.2 24.4c0 1.1-11.1-2.2-11.1-2.2 1.2 0 21.1 24.4 21.1 24.4h-29.9v12.2c0 0-13.4 1.1-12.2 1.1v-13.3h-30l21.1-25.5-11.1 3.3 15.5-24.4-6.6 4.4c0 0 18.8-38.8 19.9-38.8zm266.4-8.9l22.2 44.4-8.8-4.4c0 0 13.3 27.7 13.3 28.8 0 1.1-12.2-3.3-11.1-3.3l23.3 28.9-34.4-1.1-1.1 14.4c0 0-14.5 1.1-13.4 1.1 1.2 0 0-15.5 0-15.5l-34.4 1.1 24.5-30-12.3 4.4 17.8-28.8-8.9 4.4zm227.6-24.4l23.3 46.6-8.9-4.4c0 0 14.4 31.1 14.4 32.2 1.1 0-13.3-3.4-12.2-3.4 1.1 0 25.6 30 25.6 30h-36.7l-1.1 15.5h-15.5c1.1 1.2 0-15.5 0-15.5h-36.7l26.7-32.2-13.3 5.6 18.8-31.1-8.8 4.4zm175.3-16.6l27.8 55.5-11.1-5.6c0 0 17.7 36.7 17.7 37.8 0 1.1-15.5-4.5-14.4-3.4 1.1 0 30 35.6 30 35.6l-44.4-1.2v18.9c0 0-18.9 1.1-17.8 1.1 1.1 0 0-20 0-20l-44.4 1.2 31.1-37.8-15.5 5.6 22.2-36.7-11.1 5.6z"/>
		</g>
	</g>
</svg>